Coordinates
version=1
nRows=33
nColumns=34
inDegrees=no

Units are S.I. units (second, meters, Newtons, ...)
If the header above contains a line with 'inDegrees', this indicates whether rotational values are in degrees (yes) or radians (no).

endheader
time	pelvis_tilt	pelvis_list	pelvis_rotation	pelvis_tx	pelvis_ty	pelvis_tz	hip_flexion_r	hip_adduction_r	hip_rotation_r	knee_angle_r	ankle_angle_r	subtalar_angle_r	mtp_angle_r	hip_flexion_l	hip_adduction_l	hip_rotation_l	knee_angle_l	ankle_angle_l	subtalar_angle_l	mtp_angle_l	lumbar_extension	lumbar_bending	lumbar_rotation	arm_flex_r	arm_add_r	arm_rot_r	elbow_flex_r	pro_sup_r	arm_flex_l	arm_add_l	arm_rot_l	elbow_flex_l	pro_sup_l
0.95	-0.09723	0.0549131	-0.0326375	0.905976	0.959308	-0.186938	0.507363	-0.109702	-0.0581658	0.863148	0.119887	-0.228268	0	0.123648	0.0891055	-0.0871651	0.181975	0.255041	0.0973378	0	-0.157505	-0.370059	-0.136689	-0.0249065	-0.147811	0.275518	0.655991	2.09	0.123559	-0.236076	-0.0223253	0.503863	2.09
0.96	-0.0979203	0.0514545	-0.0270551	0.916646	0.959692	-0.189178	0.519279	-0.103114	-0.0620802	0.820567	0.13333	-0.198478	0	0.103006	0.0897623	-0.0733761	0.165277	0.250966	0.0850761	0	-0.158619	-0.358669	-0.137897	-0.0271197	-0.14846	0.261349	0.653438	2.09	0.126848	-0.2325	-0.0108922	0.508637	2.09
0.97	-0.0984977	0.0478751	-0.0211792	0.92737	0.959883	-0.191494	0.529041	-0.0969663	-0.0676607	0.775202	0.146343	-0.164856	0	0.082105	0.0902788	-0.0579025	0.148385	0.246596	0.0703207	0	-0.15964	-0.346652	-0.139052	-0.0292667	-0.149074	0.246549	0.650754	2.09	0.129827	-0.228533	-0.000782049	0.514055	2.09
0.98	-0.0990387	0.0442175	-0.0149648	0.938155	0.95986	-0.193907	0.536796	-0.0914605	-0.0752812	0.727421	0.158587	-0.127426	0	0.0610325	0.0907169	-0.0402357	0.131358	0.241661	0.0522408	0	-0.160459	-0.334008	-0.140219	-0.0314022	-0.149751	0.231243	0.648099	2.09	0.132546	-0.224089	0.00789639	0.519779	2.09
0.99	-0.0989896	0.0410423	-0.00846426	0.949073	0.959641	-0.196505	0.542087	-0.0878955	-0.0863851	0.677952	0.171426	-0.0833098	0	0.0350025	0.0939327	0.00793811	0.105912	0.217143	-0.0165218	0	-0.161562	-0.321202	-0.141412	-0.0337147	-0.150672	0.21526	0.645875	2.09	0.135011	-0.219063	0.0154639	0.525581	2.09
1	-0.099768	0.0371343	-0.00199212	0.960002	0.959129	-0.199043	0.546477	-0.0828417	-0.0975463	0.626226	0.178601	-0.0431527	0	0.0154733	0.0928295	0.0187893	0.0920122	0.217446	-0.0245427	0	-0.161318	-0.307368	-0.142346	-0.035865	-0.151604	0.199751	0.643519	2.09	0.136816	-0.213894	0.0216092	0.531991	2.09
1.01	-0.100216	0.0334384	0.00443838	0.971064	0.958389	-0.201644	0.548929	-0.0787566	-0.111723	0.573447	0.184739	0.000400943	0	-0.00511919	0.0921162	0.0342311	0.0770824	0.214758	-0.0413918	0	-0.160918	-0.293343	-0.14308	-0.038181	-0.152644	0.183834	0.641654	2.09	0.137989	-0.208653	0.0275949	0.539022	2.09
1.02	-0.10028	0.0298837	0.0106595	0.982278	0.957415	-0.20426	0.549607	-0.075211	-0.12872	0.520196	0.189721	0.0460177	0	-0.0269538	0.0915462	0.0548772	0.0609425	0.208216	-0.0685952	0	-0.160344	-0.279157	-0.143579	-0.0406044	-0.153748	0.167712	0.64024	2.09	0.138257	-0.203628	0.033895	0.547138	2.09
1.03	-0.10013	0.0263087	0.0164384	0.993635	0.9562	-0.206811	0.548869	-0.0710027	-0.146025	0.466697	0.192383	0.0887511	0	-0.0489248	0.0904853	0.0747409	0.0453958	0.201736	-0.0963565	0	-0.15936	-0.264811	-0.143789	-0.0429562	-0.154815	0.151839	0.638988	2.09	0.137361	-0.199142	0.0407059	0.556746	2.09
1.04	-0.0996718	0.022655	0.0217805	1.00514	0.95476	-0.209272	0.546822	-0.0660656	-0.163477	0.41359	0.19414	0.128708	0	-0.0709177	0.0888191	0.0929269	0.0308413	0.196031	-0.122711	0	-0.158126	-0.2503	-0.14377	-0.0452104	-0.155741	0.136039	0.637864	2.09	0.135315	-0.195373	0.0482951	0.567841	2.09
1.05	-0.0990015	0.0189049	0.0266072	1.01678	0.953104	-0.211606	0.543719	-0.0598762	-0.178912	0.36115	0.19506	0.162574	0	-0.092299	0.0864976	0.106643	0.0182717	0.19344	-0.142313	0	-0.156574	-0.2357	-0.143525	-0.0472571	-0.156436	0.120494	0.636623	2.09	0.132152	-0.192417	0.0564552	0.580239	2.09
1.06	-0.0980047	0.015073	0.0310349	1.02856	0.951253	-0.213828	0.539705	-0.0528985	-0.193501	0.310259	0.196799	0.192166	0	-0.11357	0.0836825	0.119515	0.00689321	0.191292	-0.160789	0	-0.154929	-0.221006	-0.143065	-0.0491927	-0.156839	0.104754	0.635362	2.09	0.128157	-0.190203	0.065196	0.59341	2.09
1.07	-0.0980989	0.0121141	0.0348076	1.04042	0.94911	-0.215919	0.537049	-0.0454694	-0.203053	0.262133	0.198463	0.211035	0	-0.132081	0.0816002	0.126815	0	0.193086	-0.170119	0	-0.151577	-0.207477	-0.142436	-0.0508228	-0.157082	0.0909833	0.633263	2.09	0.123197	-0.18868	0.0732843	0.606689	2.09
1.08	-0.0972477	0.00927031	0.0382289	1.0523	0.946927	-0.217884	0.534348	-0.0378314	-0.212007	0.218919	0.201164	0.223958	0	-0.150128	0.0794115	0.133044	0	0.195773	-0.176732	0	-0.149462	-0.194125	-0.141514	-0.0521025	-0.156788	0.076631	0.63147	2.09	0.118654	-0.187685	0.0815479	0.619035	2.09
1.09	-0.0961465	0.0061446	0.0417857	1.06439	0.944589	-0.219795	0.529831	-0.0294049	-0.219751	0.176599	0.203995	0.231132	0	-0.168123	0.07659	0.138428	0	0.199819	-0.18039	0	-0.14724	-0.180382	-0.140552	-0.0536781	-0.155978	0.0604428	0.629589	2.09	0.113342	-0.187233	0.0906358	0.631932	2.09
1.1	-0.0923932	0.00151871	0.0458176	1.07685	0.942351	-0.221634	0.519533	-0.0173448	-0.211851	0.132536	0.200475	0.208526	0	-0.187819	0.0720036	0.15893	0	0.191957	-0.209527	0	-0.147676	-0.164646	-0.139039	-0.0558732	-0.151954	0.029322	0.628103	2.09	0.108377	-0.185814	0.0970419	0.643858	2.09
1.11	-0.0931652	0.00115189	0.0484853	1.08895	0.939715	-0.223384	0.5203	-0.0118594	-0.218276	0.104917	0.205084	0.206066	0	-0.203619	0.0715603	0.157779	0	0.200215	-0.199744	0	-0.143688	-0.154374	-0.137887	-0.0570848	-0.15232	0.023422	0.626342	2.09	0.102936	-0.187245	0.108568	0.654956	2.09
1.12	-0.0923672	0.000590518	0.0512911	1.10139	0.93719	-0.225099	0.519238	-0.0061268	-0.222957	0.0826105	0.210348	0.19866	0	-0.218298	0.0710078	0.15788	0	0.207864	-0.190011	0	-0.141164	-0.143701	-0.13662	-0.0582945	-0.15044	0.00869692	0.623868	2.09	0.097458	-0.18795	0.117439	0.664666	2.09
1.13	-0.0912346	0.000691697	0.0539204	1.11399	0.934724	-0.226772	0.51887	-0.00146831	-0.226439	0.0681863	0.217138	0.189345	0	-0.232524	0.0710347	0.158284	0	0.214472	-0.179791	0	-0.139108	-0.13375	-0.135092	-0.0596116	-0.147859	-0.00790166	0.62164	2.09	0.0922202	-0.188575	0.125539	0.672698	2.09
1.14	-0.0899243	0.00144402	0.0562662	1.12677	0.932342	-0.228404	0.519427	0.0018745	-0.229418	0.062148	0.226076	0.181397	0	-0.246082	0.0717096	0.15879	0	0.219683	-0.169243	0	-0.137256	-0.124529	-0.133318	-0.0609698	-0.145025	-0.0243879	0.619555	2.09	0.0871425	-0.189065	0.132871	0.678722	2.09
1.15	-0.0875533	0.00191656	0.0587113	1.13985	0.93011	-0.230042	0.519553	0.00460923	-0.232266	0.0641713	0.238773	0.175257	0	-0.259848	0.0718529	0.155314	0.00534779	0.226841	-0.150421	0	-0.136314	-0.114697	-0.131036	-0.0630411	-0.141478	-0.0455342	0.618385	2.09	0.082276	-0.189533	0.14178	0.683013	2.09
1.16	-0.0857116	0.00303533	0.0607809	1.15303	0.928003	-0.23162	0.521274	0.00562996	-0.238024	0.0741466	0.251912	0.178288	0	-0.268737	0.0728062	0.136499	0.0218471	0.2431	-0.106696	0	-0.134792	-0.10568	-0.128624	-0.0648983	-0.138432	-0.0626665	0.616946	2.09	0.0777078	-0.189468	0.148752	0.684133	2.09
1.17	-0.0839502	0.00349422	0.0628607	1.16643	0.926034	-0.233157	0.523136	0.00636526	-0.245019	0.0898281	0.263384	0.186026	0	-0.274287	0.0724204	0.104737	0.0445471	0.265119	-0.0423293	0	-0.132789	-0.0958359	-0.126337	-0.0667596	-0.135905	-0.0776358	0.615138	2.09	0.0728007	-0.188823	0.154407	0.683078	2.09
1.18	-0.0821385	0.00253076	0.0649285	1.18008	0.924222	-0.234622	0.523691	0.00851564	-0.2456	0.107441	0.266767	0.185568	0	-0.277269	0.0694034	0.06509	0.0719411	0.287079	0.0322316	0	-0.130313	-0.0842824	-0.123882	-0.0688612	-0.133994	-0.0909758	0.613223	2.09	0.0677004	-0.187468	0.159257	0.679621	2.09
1.19	-0.0803895	-0.000274001	0.066815	1.19397	0.922577	-0.235984	0.522692	0.0131631	-0.236824	0.124907	0.258426	0.171714	0	-0.278013	0.0630652	0.021794	0.102989	0.305109	0.109045	0	-0.127166	-0.0705819	-0.1211	-0.0711749	-0.132853	-0.102359	0.611077	2.09	0.062388	-0.185288	0.163217	0.673739	2.09
1.2	-0.0792124	-0.00544028	0.0684692	1.20805	0.921068	-0.237201	0.521164	0.0208765	-0.220489	0.141917	0.237914	0.146257	0	-0.274121	0.0517517	-0.0328562	0.141182	0.322721	0.199573	0	-0.122791	-0.0542598	-0.117931	-0.0736853	-0.132554	-0.111663	0.608654	2.09	0.056874	-0.182202	0.166146	0.665465	2.09
1.21	-0.0785237	-0.0128448	0.0694577	1.2223	0.919738	-0.238223	0.51967	0.0316178	-0.198349	0.158948	0.206983	0.111815	0	-0.266516	0.0345157	-0.0983509	0.185287	0.336938	0.302029	0	-0.11733	-0.035553	-0.114001	-0.0763135	-0.133031	-0.118996	0.605867	2.09	0.0512384	-0.178191	0.167859	0.654852	2.09
1.22	-0.0775699	-0.0192904	0.0693217	1.23673	0.918716	-0.239325	0.520672	0.0390826	-0.191919	0.183584	0.18273	0.105263	0	-0.264048	0.0234271	-0.112248	0.218519	0.323325	0.323501	0	-0.11196	-0.0175604	-0.109263	-0.078838	-0.134404	-0.124466	0.602678	2.09	0.0456593	-0.173005	0.167934	0.64194	2.09
1.23	-0.0776003	-0.0276278	0.0683973	1.25122	0.917865	-0.240217	0.523877	0.0482792	-0.184894	0.211152	0.15868	0.0970693	0	-0.254128	0.0053789	-0.150698	0.263737	0.314313	0.379075	0	-0.105234	0.00226321	-0.103685	-0.0813654	-0.136285	-0.12882	0.599183	2.09	0.0400753	-0.166927	0.166336	0.627155	2.09
1.24	-0.0777088	-0.0358113	0.066458	1.26576	0.917305	-0.24106	0.528808	0.0563303	-0.18225	0.243567	0.142805	0.0965038	0	-0.24231	-0.0119615	-0.175992	0.31094	0.295197	0.412183	0	-0.098443	0.0219059	-0.0973996	-0.0835173	-0.138664	-0.132114	0.59525	2.09	0.0345586	-0.159903	0.162439	0.610914	2.09
1.25	-0.0780516	-0.0444535	0.0636178	1.28027	0.917004	-0.241803	0.534647	0.0643761	-0.181534	0.278899	0.135619	0.0985216	0	-0.226359	-0.031311	-0.199509	0.364198	0.270514	0.439564	0	-0.0914692	0.0418915	-0.0905629	-0.085156	-0.141412	-0.134732	0.590963	2.09	0.0290876	-0.152101	0.156118	0.59368	2.09
1.26	-0.0781265	-0.0533423	0.0599958	1.29471	0.917004	-0.242466	0.539423	0.0730708	-0.179363	0.314303	0.135709	0.0978846	0	-0.207047	-0.0511633	-0.215384	0.422202	0.238128	0.451481	0	-0.0850374	0.0619696	-0.0834636	-0.0859257	-0.144446	-0.136791	0.586312	2.09	0.0237891	-0.143731	0.147365	0.575835	2.09
1.27	-0.0781823	-0.0630582	0.0557576	1.30901	0.917254	-0.243011	0.542221	0.0835523	-0.175047	0.347091	0.141043	0.0931725	0	-0.183495	-0.0729386	-0.227242	0.485827	0.198792	0.452228	0	-0.0789057	0.082614	-0.076423	-0.0856461	-0.147727	-0.138248	0.581346	2.09	0.0186427	-0.135034	0.136337	0.557717	2.09
